<svg width="4420" height="3756" viewBox="0 0 4420 3756" fill="none" xmlns="http://www.w3.org/2000/svg">
<path d="M2411 1624.57H1969.98V931H2167.27V1274.43H1768V1968" stroke="black" stroke-width="8"/>
<path d="M194 1779.63V2158.63H413V1779.63" stroke="black" stroke-width="8"/>
<path d="M877 1779.63V2158.63H1095V1779.63" stroke="black" stroke-width="8"/>
<path d="M751.032 2155.73L746.995 1777L528.63 1779.33L532.667 2158.05" stroke="black" stroke-width="8"/>
<path d="M1228 1779.63V2158.63H1446V1779.63" stroke="black" stroke-width="8"/>
<path d="M2612 2787V2466H2912V2787H2612Z" stroke="black" stroke-width="8"/>
<path d="M3025 2787V2466H3325V2787H3025Z" stroke="black" stroke-width="8"/>
<path d="M2612 2343V2023H2912V2343H2612Z" stroke="black" stroke-width="8"/>
<path d="M3025 2343V2023H3325V2343H3025Z" stroke="black" stroke-width="8"/>
<path d="M3632 3698V3377H3932V3698H3632Z" stroke="black" stroke-width="8"/>
<path d="M4045 3698V3377H4345V3698H4045Z" stroke="black" stroke-width="8"/>
<path d="M3632 3254V2934H3932V3254H3632Z" stroke="black" stroke-width="8"/>
<path d="M4045 3254V2934H4345V3254H4045Z" stroke="black" stroke-width="8"/>
<path d="M948 768V448H1249V768H948Z" stroke="black" stroke-width="8"/>
<path d="M1361 768V448H1661V768H1361Z" stroke="black" stroke-width="8"/>
<path d="M1774 768V448H2074V768H1774Z" stroke="black" stroke-width="8"/>
<path d="M948 325V4H1249V325H948Z" stroke="black" stroke-width="8"/>
<path d="M1361 325V4H1661V325H1361Z" stroke="black" stroke-width="8"/>
<path d="M1774 325V4H2074V325H1774Z" stroke="black" stroke-width="8"/>
<path d="M2179 768V448H2480V768H2179Z" stroke="black" stroke-width="8"/>
<path d="M2179 325V4H2480V325H2179Z" stroke="black" stroke-width="8"/>
<path d="M43 3636V3316H344V3636H43Z" stroke="black" stroke-width="8"/>
<path d="M456 3636V3316H756V3636H456Z" stroke="black" stroke-width="8"/>
<path d="M869 3636V3316H1169V3636H869Z" stroke="black" stroke-width="8"/>
<path d="M43 3193V2872H344V3193H43Z" stroke="black" stroke-width="8"/>
<path d="M456 3193V2872H756V3193H456Z" stroke="black" stroke-width="8"/>
<path d="M869 3193V2872H1169V3193H869Z" stroke="black" stroke-width="8"/>
<path d="M1274 3636V3316H1575V3636H1274Z" stroke="black" stroke-width="8"/>
<path d="M1274 3193V2872H1575V3193H1274Z" stroke="black" stroke-width="8"/>
<path d="M43 1631V1310H344V1631H43Z" stroke="black" stroke-width="8"/>
<path d="M456 1631V1310H756V1631H456Z" stroke="black" stroke-width="8"/>
<path d="M869 1631V1310H1169V1631H869Z" stroke="black" stroke-width="8"/>
<path d="M1282 1631V1310H1582V1631H1282Z" stroke="black" stroke-width="8"/>
<path d="M1621 891H4V1178H1621V891Z" stroke="black" stroke-width="8"/>
<path d="M2899 1740V122L2612 122V1740H2899Z" stroke="black" stroke-width="8"/>
<path d="M3311 1740V122L3024 122V1740H3311Z" stroke="black" stroke-width="8"/>
<path d="M1810 2042H2466V1666" stroke="black" stroke-width="8"/>
<path d="M451 297H731V652H451" stroke="black" stroke-width="8"/>
<path d="M3812 2476L3812 1104.54H3478L3478 2141.66H3696.12L3696.12 838.435M3696.12 838.435H3478V504.099M3696.12 838.435H3812V504.099H3645M3478 504.099V122H3645M3478 504.099H3645M3696.12 122H3645M3645 504.099V122" stroke="black" stroke-width="8"/>
<path d="M4008 132H4416V636H4008V380H4200V772M4200 772H4416V1036H4200V772ZM4008 772V1156V1196M4008 1196V1452H4200V1196H4008Z" stroke="black" stroke-width="8"/>
<path d="M4416 1652H4024V2852H4416V1652Z" stroke="black" stroke-width="8"/>
<path d="M64 2718H1435.46V2384H398.336V2602.12H1701.57M1701.57 2602.12V2384H2035.9M1701.57 2602.12V2718H2035.9V2551M2035.9 2384H2418V2551M2035.9 2384V2551M2418 2602.12V2551M2035.9 2551H2418" stroke="black" stroke-width="8"/>
<path d="M72 171H443.91V768H867V447.326H72V171Z" stroke="black" stroke-width="8"/>
<path d="M2979 3185H3259V3540H2979" stroke="black" stroke-width="8"/>
<path d="M2600 3059H2971.91V3656H3395V3335.33H2600V3059Z" stroke="black" stroke-width="8"/>
<path d="M2297.58 3267.08V3547.08H1942.58V3267.08" stroke="black" stroke-width="8"/>
<path d="M2416 2888V3259.91H1819V3683H2139.67V2888H2416Z" stroke="black" stroke-width="8"/>
<path d="M64 2590V2384H396" stroke="black" stroke-width="8"/>
</svg>
