<svg width="4337" height="3818" viewBox="0 0 4337 3818" fill="none" xmlns="http://www.w3.org/2000/svg">
<path d="M2400 1573.57H2026.19V985H2193.41V1276.43H1855V1865" stroke="black" stroke-width="4"/>
<path d="M336 1702V2024H522V1702" stroke="black" stroke-width="4"/>
<path d="M916 1702V2024H1101V1702" stroke="black" stroke-width="4"/>
<path d="M808.784 2021.53L805.359 1700.22L620.098 1702.19L623.522 2023.51" stroke="black" stroke-width="4"/>
<path d="M1213 1702V2024H1398V1702" stroke="black" stroke-width="4"/>
<path d="M2600 2318V2046H2854V2318H2600Z" stroke="black" stroke-width="4"/>
<path d="M2950 2318V2046H3205V2318H2950Z" stroke="black" stroke-width="4"/>
<path d="M2600 1941V1670H2854V1941H2600Z" stroke="black" stroke-width="4"/>
<path d="M2950 1941V1670H3205V1941H2950Z" stroke="black" stroke-width="4"/>
<path d="M3728 3660V3388H3983V3660H3728Z" stroke="black" stroke-width="8"/>
<path d="M4078 3660V3388H4333V3660H4078Z" stroke="black" stroke-width="8"/>
<path d="M3728 3283V3012H3983V3283H3728Z" stroke="black" stroke-width="4"/>
<path d="M4078 3283V3012H4333V3283H4078Z" stroke="black" stroke-width="4"/>
<path d="M933 650V379H1188V650H933Z" stroke="black" stroke-width="4"/>
<path d="M1283 650V379H1538V650H1283Z" stroke="black" stroke-width="4"/>
<path d="M1634 650V379H1888V650H1634Z" stroke="black" stroke-width="4"/>
<path d="M933 274V2H1188V274H933Z" stroke="black" stroke-width="4"/>
<path d="M1283 274V2H1538V274H1283Z" stroke="black" stroke-width="4"/>
<path d="M1634 274V2H1888V274H1634Z" stroke="black" stroke-width="4"/>
<path d="M1977 650V379H2233V650H1977Z" stroke="black" stroke-width="4"/>
<path d="M1977 274V2H2233V274H1977Z" stroke="black" stroke-width="4"/>
<path d="M4 3494V3223H259V3494H4Z" stroke="black" stroke-width="8"/>
<path d="M353 3494V3223H608V3494H353Z" stroke="black" stroke-width="8"/>
<path d="M701 3494V3223H955V3494H701Z" stroke="black" stroke-width="8"/>
<path d="M4 3119V2846H259V3119H4Z" stroke="black" stroke-width="4"/>
<path d="M353 3119V2846H608V3119H353Z" stroke="black" stroke-width="4"/>
<path d="M701 3119V2846H955V3119H701Z" stroke="black" stroke-width="4"/>
<path d="M1048 3494V3223H1304V3494H1048Z" stroke="black" stroke-width="8"/>
<path d="M1048 3119V2846H1304V3119H1048Z" stroke="black" stroke-width="4"/>
<path d="M208 1576V1304H463V1576H208Z" stroke="black" stroke-width="4"/>
<path d="M558 1576V1304H813V1576H558Z" stroke="black" stroke-width="4"/>
<path d="M909 1576V1304H1163V1576H909Z" stroke="black" stroke-width="4"/>
<path d="M1259 1576V1304H1514V1576H1259Z" stroke="black" stroke-width="4"/>
<path d="M1538 855H166V1098H1538V855Z" stroke="black" stroke-width="4"/>
<path d="M2835 1375V2L2592 2V1375H2835Z" stroke="black" stroke-width="4"/>
<path d="M3185 1375V2L2941 2V1375H3185Z" stroke="black" stroke-width="4"/>
<path d="M1890 1928H2447V1609" stroke="black" stroke-width="4"/>
<path d="M335 251H573V552H335" stroke="black" stroke-width="4"/>
<path d="M3690 2135L3690 971.53H3406L3406 1851.37H3591.47L3591.47 745.783M3591.47 745.783H3406V462.151M3591.47 745.783H3690V462.151H3548M3406 462.151V138H3548M3406 462.151H3548M3591.47 138H3548M3548 462.151V138" stroke="black" stroke-width="4"/>
<path d="M3856 147H4202V574.255H3856V357.236H4018.82V689.545M4018.82 689.545H4202V913.345H4018.82V689.545ZM3856 689.545V1015.07V1048.98M3856 1048.98V1266H4018.82V1048.98H3856Z" stroke="black" stroke-width="4"/>
<path d="M4297 1769H3965V2787H4297V1769Z" stroke="black" stroke-width="4"/>
<path d="M7 2547H1170.47V2263H290.632V2448.47H1396.22M1396.22 2448.47V2263H1679.85M1396.22 2448.47V2547H1679.85V2405M1679.85 2263H2004V2405M1679.85 2263V2405M2004 2448.47V2405M1679.85 2405H2004" stroke="black" stroke-width="4"/>
<path d="M14 144H329.305V650H688V378.206H14V144Z" stroke="black" stroke-width="4"/>
<path d="M2611 3125H2849V3426H2611" stroke="black" stroke-width="4"/>
<path d="M2289 3018H2604.77V3524H2964V3252.21H2289V3018Z" stroke="black" stroke-width="4"/>
<path d="M3192 2664H3430V2965H3192" stroke="black" stroke-width="4"/>
<path d="M2870 2557H3185.77V3063H3545V2791.21H2870V2557Z" stroke="black" stroke-width="4"/>
<path d="M2040 2976V3214H1739V2976" stroke="black" stroke-width="4"/>
<path d="M2140 2655V2970.3H1634V3329H1905.79V2655H2140Z" stroke="black" stroke-width="4"/>
<path d="M7 2438V2263H289" stroke="black" stroke-width="4"/>
<rect x="4" y="169" width="4293" height="3649" stroke="black"/>
</svg>
