<svg width="4301" height="3653" viewBox="0 0 4301 3653" fill="none" xmlns="http://www.w3.org/2000/svg">
<path d="M4 0V325.724H2067.78V726H1159.12V153.105H2608" stroke="black" stroke-width="8"/>
<path d="M4297 161L3971.28 161V2224.78H3571V1316.12H4143.89V2765" stroke="black" stroke-width="8"/>
<path d="M901.294 573V1090.16H88V858.81H490.706V1327H1304" stroke="black" stroke-width="8"/>
<path d="M3365 1155.29H2847.84V342H3079.19V744.706H2611V1558" stroke="black" stroke-width="8"/>
<path d="M1908 1328V861V1861H748V1328" stroke="black" stroke-width="8"/>
<path d="M2346.37 1676H304V1980H1749.18V2272H996.732V2104H304V2440H2274.7M2274.7 2440V2072H3182.42V2840H3696V2440H2274.7Z" stroke="black" stroke-width="8"/>
<path d="M48 2545V2989H304V2545" stroke="black" stroke-width="8"/>
<path d="M848 2545V2989H1104V2545" stroke="black" stroke-width="8"/>
<path d="M700.717 2985.97L695.985 2542L440 2544.73L444.732 2988.7" stroke="black" stroke-width="8"/>
<path d="M1260 2545V2989H1516V2545" stroke="black" stroke-width="8"/>
<path d="M1712 2545V2989H1968V2545" stroke="black" stroke-width="8"/>
<path d="M2124 2545V2989H2380V2545" stroke="black" stroke-width="8"/>
<path d="M2576 2545V2989H2832V2545" stroke="black" stroke-width="8"/>
<path d="M433.412 3189H3444V3369H1620.92V3517H32V3649H2674.63M2674.63 3649V3465H4297V3649H2674.63Z" stroke="black" stroke-width="8"/>
</svg>
