<svg width="4295" height="3849" viewBox="0 0 4295 3849" fill="none" xmlns="http://www.w3.org/2000/svg">
<g id="Frame 3">
<g id="Frame 2">
<path id="Vector 13" d="M2398 1573.57H2024.19V985H2191.41V1276.43H1853V1865" stroke="black" stroke-width="3"/>
<path id="Vector 5" d="M334 1702V2024H520V1702" stroke="black" stroke-width="3"/>
<path id="Vector 7" d="M914 1702V2024H1099V1702" stroke="black" stroke-width="3"/>
<path id="Vector 6" d="M806.784 2021.53L803.359 1700.22L618.098 1702.19L621.522 2023.51" stroke="black" stroke-width="3"/>
<path id="Vector 8" d="M1211 1702V2024H1396V1702" stroke="black" stroke-width="3"/>
<path id="Vector 14" d="M2598 2318V2046H2852V2318H2598Z" stroke="black" stroke-width="3"/>
<path id="Vector 16" d="M2948 2318V2046H3203V2318H2948Z" stroke="black" stroke-width="3"/>
<path id="Vector 25" d="M2598 1941V1670H2852V1941H2598Z" stroke="black" stroke-width="3"/>
<path id="Vector 26" d="M2948 1941V1670H3203V1941H2948Z" stroke="black" stroke-width="3"/>
<path id="Vector 30" d="M931 650V379H1186V650H931Z" stroke="black" stroke-width="3"/>
<path id="Vector 31" d="M1281 650V379H1536V650H1281Z" stroke="black" stroke-width="3"/>
<path id="Vector 32" d="M1632 650V379H1886V650H1632Z" stroke="black" stroke-width="3"/>
<path id="Vector 33" d="M931 274V2H1186V274H931Z" stroke="black" stroke-width="3"/>
<path id="Vector 34" d="M1281 274V2H1536V274H1281Z" stroke="black" stroke-width="3"/>
<path id="Vector 35" d="M1632 274V2H1886V274H1632Z" stroke="black" stroke-width="3"/>
<path id="Vector 28" d="M1975 650V379H2231V650H1975Z" stroke="black" stroke-width="3"/>
<path id="Vector 29" d="M1975 274V2H2231V274H1975Z" stroke="black" stroke-width="3"/>
<path id="Vector 41" d="M2 3494V3223H257V3494H2Z" stroke="black" stroke-width="3"/>
<path id="Vector 42" d="M351 3494V3223H606V3494H351Z" stroke="black" stroke-width="3"/>
<path id="Vector 43" d="M699 3494V3223H953V3494H699Z" stroke="black" stroke-width="3"/>
<path id="Vector 44" d="M2 3119V2846H257V3119H2Z" stroke="black" stroke-width="3"/>
<path id="Vector 45" d="M351 3119V2846H606V3119H351Z" stroke="black" stroke-width="3"/>
<path id="Vector 46" d="M699 3119V2846H953V3119H699Z" stroke="black" stroke-width="3"/>
<path id="Vector 47" d="M1046 3494V3223H1302V3494H1046Z" stroke="black" stroke-width="3"/>
<path id="Vector 48" d="M1046 3119V2846H1302V3119H1046Z" stroke="black" stroke-width="3"/>
<path id="Vector 19" d="M206 1576V1304H461V1576H206Z" stroke="black" stroke-width="3"/>
<path id="Vector 20" d="M556 1576V1304H811V1576H556Z" stroke="black" stroke-width="3"/>
<path id="Vector 21" d="M907 1576V1304H1161V1576H907Z" stroke="black" stroke-width="3"/>
<path id="Vector 22" d="M1257 1576V1304H1512V1576H1257Z" stroke="black" stroke-width="3"/>
<path id="Vector 15" d="M1536 855H164V1098H1536V855Z" stroke="black" stroke-width="3"/>
<path id="Vector 24" d="M2833 1375V2L2590 2V1375H2833Z" stroke="black" stroke-width="3"/>
<path id="Vector 36" d="M3183 1375V2L2939 2V1375H3183Z" stroke="black" stroke-width="3"/>
<path id="Vector 23" d="M1888 1928H2445V1609" stroke="black" stroke-width="3"/>
<path id="Vector 40" d="M333 251H571V552H333" stroke="black" stroke-width="3"/>
<path id="Vector 24_2" d="M5 2547H1168.47V2263H288.632V2448.47H1394.22M1394.22 2448.47V2263H1677.85M1394.22 2448.47V2547H1677.85V2405M1677.85 2263H2002V2405M1677.85 2263V2405M2002 2448.47V2405M1677.85 2405H2002" stroke="black" stroke-width="3"/>
<path id="Vector 25_2" d="M12 144H327.305V650H686V378.206H12V144Z" stroke="black" stroke-width="3"/>
<path id="Vector 40_2" d="M2609 3125H2847V3426H2609" stroke="black" stroke-width="3"/>
<path id="Vector 41_2" d="M2287 3018H2602.77V3524H2962V3252.21H2287V3018Z" stroke="black" stroke-width="3"/>
<path id="Vector 56" d="M2326 2438H2641.77V2944H3001V2672.21H2326V2438Z" stroke="black" stroke-width="3"/>
<path id="Vector 43_2" d="M2038 2976V3214H1737V2976" stroke="black" stroke-width="3"/>
<path id="Vector 44_2" d="M2138 2655V2970.3H1632V3329H1903.79V2655H2138Z" stroke="black" stroke-width="3"/>
<path id="Vector 26_2" d="M5 2438V2263H287" stroke="black" stroke-width="3"/>
</g>
</g>
</svg>
